<mxfile host="app.diagrams.net" modified="2024-07-04T09:09:50.039Z" agent="Mozilla/5.0 (Windows NT 10.0; Win64; x64) AppleWebKit/537.36 (KHTML, like Gecko) Chrome/126.0.0.0 Safari/537.36" version="24.6.4" etag="DQeewooP8jF5SsZ24OBv" type="github">
  <diagram name="Page-1" id="gm6XaU6dHkjGv7icZa6b">
    <mxGraphModel>
      <root>
        <mxCell id="0" />
        <mxCell id="1" parent="0" />
      </root>
    </mxGraphModel>
  </diagram>
</mxfile>
